<svg id="visual" viewBox="0 0 960 540" width="960" height="540" xmlns="http://www.w3.org/2000/svg" xmlns:xlink="http://www.w3.org/1999/xlink" version="1.1">
    <rect x="0" y="0" width="960" height="540" fill="#002233"></rect>
    <path d="M0 47L10.7 94.3C21.3 141.7 42.7 236.3 64 300C85.3 363.7 106.7 396.3 128 368.5C149.3 340.7 170.7 252.3 192 193.5C213.3 134.7 234.7 105.3 256 149.3C277.3 193.3 298.7 310.7 320 319.3C341.3 328 362.7 228 384 194.3C405.3 160.7 426.7 193.3 448 244.5C469.3 295.7 490.7 365.3 512 346.5C533.3 327.7 554.7 220.3 576 188C597.3 155.7 618.7 198.3 640 192C661.3 185.7 682.7 130.3 704 98C725.3 65.7 746.7 56.3 768 77.8C789.3 99.3 810.7 151.7 832 200.2C853.3 248.7 874.7 293.3 896 307.2C917.3 321 938.7 304 949.3 295.5L960 287L960 0L949.3 0C938.7 0 917.3 0 896 0C874.7 0 853.3 0 832 0C810.7 0 789.3 0 768 0C746.7 0 725.3 0 704 0C682.7 0 661.3 0 640 0C618.7 0 597.3 0 576 0C554.7 0 533.3 0 512 0C490.7 0 469.3 0 448 0C426.7 0 405.3 0 384 0C362.7 0 341.3 0 320 0C298.7 0 277.3 0 256 0C234.7 0 213.3 0 192 0C170.7 0 149.3 0 128 0C106.7 0 85.3 0 64 0C42.7 0 21.3 0 10.7 0L0 0Z" fill="#4f13aa" stroke-linecap="round" stroke-linejoin="miter"></path>
</svg>